# xmcd CD database file
#
# Track frame offsets:
#	150
#	75591
#	98581
#	128004
#	166272
#	184007
#	205235
#	242932
#	260045
#
# Disc length: 3807 seconds
#
# Revision: 0
# Processed by: cddbd v1.5.2PL0 Copyright (c) Steve Scherf et al.
# Submitted via: CDex 1.70beta2
#
DISCID=710edd09
DTITLE=Gary Stroutsos - Within You Without You
DYEAR=1900
DGENRE=New Age
TTITLE0=Within You Without You
TTITLE1=Temple of Heaven
TTITLE2=Hymn to Tranquility
TTITLE3=Wings of Affection
TTITLE4=Monastery Without Walls
TTITLE5=Journey into Stillness
TTITLE6=Anasazi Dreamers
TTITLE7=Stone Lantern
TTITLE8=Hindu Traveler
EXTD=
EXTT0=
EXTT1=
EXTT2=
EXTT3=
EXTT4=
EXTT5=
EXTT6=
EXTT7=
EXTT8=
PLAYORDER=
